<svg aria-hidden="true" style="position: absolute; width: 0; height: 0; overflow: hidden;" version="1.1" xmlns="http://www.w3.org/2000/svg" xmlns:xlink="http://www.w3.org/1999/xlink">
<defs>

<symbol id="icon-decorative-dot" viewBox="0 0 32 32">
<path fill="#c1c4ca" style="fill: var(--color1, #c1c4ca)" d="M19.584 1.536l10.88 10.88c2.048 2.048 2.048 5.248 0 7.296l-10.88 10.88c-2.048 2.048-5.248 2.048-7.296 0l-10.88-10.88c-2.048-2.048-2.048-5.248 0-7.296l10.88-10.88c2.048-2.048 5.376-2.048 7.296 0z"></path>
</symbol>
<symbol id="icon-location" viewBox="0 0 32 32">
<path fill="#449399" style="fill: var(--color2, #449399)" d="M16.167 8c-1.215 0-2.2 0.985-2.2 2.2s0.985 2.2 2.2 2.2c1.215 0 2.2-0.985 2.2-2.2v0c0-1.215-0.985-2.2-2.2-2.2v0z"></path>
<path fill="#449399" style="fill: var(--color2, #449399)" d="M16.167 3.333c-3.681 0.004-6.663 2.987-6.667 6.667v0c0 5.674 2.121 13.917 5.673 17.889 0.245 0.273 0.6 0.444 0.994 0.444s0.749-0.171 0.993-0.443l0.001-0.001c3.551-3.971 5.673-12.214 5.673-17.889-0.005-3.68-2.987-6.662-6.667-6.667h-0zM16.167 13.733c-1.951 0-3.533-1.582-3.533-3.533s1.582-3.533 3.533-3.533c1.951 0 3.533 1.582 3.533 3.533v0c-0.003 1.95-1.583 3.53-3.533 3.533h-0z"></path>
</symbol>
<symbol id="icon-mail" viewBox="0 0 32 32">
<path fill="#449399" style="fill: var(--color2, #449399)" d="M16 20.117c-0.001 0-0.002 0-0.003 0-0.549 0-1.047-0.222-1.409-0.58l0 0-11.256-11.208v15.615c0.005 1.030 0.788 1.875 1.791 1.979l0.009 0.001 6.391-6.39c0.119-0.114 0.282-0.184 0.46-0.184 0.368 0 0.667 0.299 0.667 0.667 0 0.178-0.070 0.341-0.184 0.46l-5.469 5.467h18l-5.465-5.468c-0.114-0.119-0.184-0.282-0.184-0.46 0-0.368 0.299-0.667 0.667-0.667 0.178 0 0.341 0.070 0.46 0.184l6.39 6.39c1.012-0.105 1.795-0.95 1.8-1.979v-15.614l-11.255 11.206c-0.361 0.359-0.86 0.581-1.409 0.581-0.001 0-0.001 0-0.002 0h0z"></path>
<path fill="#449399" style="fill: var(--color2, #449399)" d="M16.471 18.592l11.785-11.736c-0.366-0.486-0.941-0.798-1.589-0.8h-21.334c-0.648 0.002-1.223 0.314-1.585 0.795l-0.004 0.005 11.784 11.736c0.121 0.12 0.287 0.195 0.472 0.195s0.351-0.074 0.472-0.195l-0 0z"></path>
</symbol>
<symbol id="icon-mark" viewBox="0 0 32 32">
<path  d="M15.959 32c-1.221 0-2.361-0.489-3.176-1.303l-11.481-11.562c-1.71-1.71-1.71-4.56 0-6.351 0 0 0 0 0 0l11.481-11.481c1.71-1.71 4.56-1.71 6.351 0 0 0 0 0 0 0l11.481 11.481c1.71 1.791 1.71 4.56 0 6.351l-11.481 11.481c-0.814 0.896-1.954 1.303-3.176 1.384zM15.959 2.443c-0.57 0-1.059 0.244-1.466 0.57l-11.481 11.481c-0.814 0.814-0.814 2.117 0 2.85l11.481 11.481c0.814 0.733 2.036 0.733 2.85 0l11.481-11.481c0.814-0.814 0.814-2.117 0-2.85l-11.399-11.481c-0.407-0.407-0.896-0.57-1.466-0.57z"></path>
<path d="M17.343 9.282l5.374 5.374c0.733 0.733 0.733 1.954 0 2.687l-5.374 5.374c-0.733 0.733-1.954 0.733-2.687 0l-5.374-5.374c-0.733-0.733-0.733-1.954 0-2.687l5.374-5.374c0.733-0.733 1.873-0.733 2.687 0z"></path>
</symbol>
<symbol id="icon-phone" viewBox="0 0 32 32">
<path fill="#449399" style="fill: var(--color2, #449399)" d="M16.653 24c0 0.368-0.299 0.667-0.667 0.667s-0.667-0.299-0.667-0.667c0-0.368 0.299-0.667 0.667-0.667s0.667 0.299 0.667 0.667z"></path>
<path fill="#449399" style="fill: var(--color2, #449399)" d="M21.986 3.333h-11.972c-1.105 0-2 0.895-2 2v0 21.333c0 1.105 0.895 2 2 2v0h11.972c1.105 0 2-0.895 2-2v0-21.333c0-1.105-0.895-2-2-2v0zM15.986 26c-1.105 0-2-0.895-2-2s0.895-2 2-2c1.105 0 2 0.895 2 2v0c0 1.105-0.895 2-2 2v0zM17.986 8.667h-4c-0.357-0.014-0.641-0.307-0.641-0.666s0.284-0.652 0.64-0.666l0.001-0h4c0.008-0 0.017-0 0.026-0 0.368 0 0.667 0.299 0.667 0.667s-0.299 0.667-0.667 0.667c-0.009 0-0.018-0-0.027-0.001l0.001 0z"></path>
</symbol>
<symbol id="icon-sub-mark" viewBox="0 0 32 32">
<path fill="#c1c4ca" style="fill: var(--color1, #c1c4ca)" d="M16 32c-2.162 0-4.18-0.865-5.622-2.306l-8.072-8.072c-3.027-3.027-3.027-8.072 0-11.243 0 0 0 0 0 0l8.072-8.072c3.027-3.027 8.072-3.027 11.243 0 0 0 0 0 0 0l8.072 8.072c3.027 3.027 3.027 8.072 0 11.243 0 0 0 0 0 0l-8.072 8.072c-1.586 1.441-3.604 2.306-5.622 2.306zM13.405 26.523c1.441 1.441 3.748 1.441 5.045 0l8.072-8.072c1.441-1.441 1.441-3.604 0-5.045 0 0 0 0 0 0l-8.072-8.072c-1.441-1.441-3.748-1.441-5.045 0l-8.072 8.072c-1.441 1.441-1.441 3.604 0 5.045 0 0 0 0 0 0l8.072 8.072z"></path>
</symbol>

<symbol id="icon-github" viewBox="0 0 33 32">
<path d="M16.285 0c-9.005 0-16.285 7.333-16.285 16.406 0 7.252 4.664 13.391 11.135 15.563 0.809 0.163 1.105-0.353 1.105-0.787 0-0.38-0.027-1.684-0.027-3.042-4.53 0.978-5.473-1.956-5.473-1.956-0.728-1.901-1.807-2.39-1.807-2.39-1.483-1.005 0.108-1.005 0.108-1.005 1.645 0.109 2.508 1.684 2.508 1.684 1.456 2.499 3.801 1.793 4.745 1.358 0.135-1.059 0.566-1.793 1.025-2.2-3.613-0.38-7.414-1.793-7.414-8.094 0-1.793 0.647-3.259 1.671-4.4-0.162-0.407-0.728-2.092 0.162-4.346 0 0 1.375-0.435 4.475 1.684 1.221-0.343 2.622-0.542 4.070-0.543h0.001c1.375 0 2.777 0.19 4.071 0.543 3.101-2.119 4.476-1.684 4.476-1.684 0.89 2.254 0.323 3.939 0.162 4.346 1.052 1.141 1.672 2.607 1.672 4.4 0 6.302-3.801 7.687-7.441 8.094 0.593 0.516 1.105 1.494 1.105 3.042 0 2.2-0.027 3.966-0.027 4.509 0 0.435 0.297 0.951 1.105 0.788 6.471-2.173 11.135-8.312 11.135-15.564 0.027-9.072-7.28-16.406-16.258-16.406z"></path>
</symbol>
<symbol id="icon-telegram" viewBox="0 0 32 32">
<path d="M14.531-0.031c0.958 0 1.917 0 2.875 0 5.603 0.68 9.822 3.451 12.656 8.313 1.043 1.967 1.679 4.050 1.906 6.25 0 0.958 0 1.917 0 2.875-0.68 5.603-3.451 9.822-8.313 12.656-1.967 1.043-4.050 1.679-6.25 1.906-0.958 0-1.917 0-2.875 0-5.603-0.68-9.822-3.451-12.656-8.313-1.043-1.967-1.679-4.050-1.906-6.25 0-0.958 0-1.917 0-2.875 0.68-5.603 3.451-9.821 8.313-12.656 1.967-1.043 4.050-1.679 6.25-1.906z"></path>
<path fill="#fefefe" style="fill: var(--color2, #fefefe)" d="M22.844 9.594c0.85 0.029 1.173 0.466 0.969 1.313-0.89 4.324-1.827 8.636-2.813 12.938-0.361 0.354-0.767 0.406-1.219 0.156-1.327-1.012-2.671-2.002-4.031-2.969-0.717 0.654-1.415 1.331-2.094 2.031-0.187 0.13-0.395 0.203-0.625 0.219 0.091-1.354 0.185-2.708 0.281-4.063 2.519-2.248 5.019-4.519 7.5-6.813 0.022-0.151-0.051-0.214-0.219-0.188-0.158 0.016-0.304 0.069-0.438 0.156-3 1.896-6 3.792-9 5.688-0.104 0.042-0.208 0.042-0.313 0-1.271-0.396-2.542-0.792-3.813-1.188-0.627-0.215-0.71-0.549-0.25-1 0.365-0.191 0.74-0.358 1.125-0.5 4.998-1.898 9.977-3.825 14.938-5.781z"></path>
</symbol>

</defs>
</svg>
