<svg aria-hidden="true" style="position: absolute; width: 0; height: 0; overflow: hidden;" version="1.1" xmlns="http://www.w3.org/2000/svg" xmlns:xlink="http://www.w3.org/1999/xlink">
<defs>
<symbol id="icon-decorative-dot" viewBox="0 0 32 32">
<path fill="#c1c4ca" style="fill: var(--color1, #c1c4ca)" d="M19.584 1.536l10.88 10.88c2.048 2.048 2.048 5.248 0 7.296l-10.88 10.88c-2.048 2.048-5.248 2.048-7.296 0l-10.88-10.88c-2.048-2.048-2.048-5.248 0-7.296l10.88-10.88c2.048-2.048 5.376-2.048 7.296 0z"></path>
</symbol>
<symbol id="icon-location" viewBox="0 0 32 32">
<path fill="#449399" style="fill: var(--color2, #449399)" d="M16.167 8c-1.215 0-2.2 0.985-2.2 2.2s0.985 2.2 2.2 2.2c1.215 0 2.2-0.985 2.2-2.2v0c0-1.215-0.985-2.2-2.2-2.2v0z"></path>
<path fill="#449399" style="fill: var(--color2, #449399)" d="M16.167 3.333c-3.681 0.004-6.663 2.987-6.667 6.667v0c0 5.674 2.121 13.917 5.673 17.889 0.245 0.273 0.6 0.444 0.994 0.444s0.749-0.171 0.993-0.443l0.001-0.001c3.551-3.971 5.673-12.214 5.673-17.889-0.005-3.68-2.987-6.662-6.667-6.667h-0zM16.167 13.733c-1.951 0-3.533-1.582-3.533-3.533s1.582-3.533 3.533-3.533c1.951 0 3.533 1.582 3.533 3.533v0c-0.003 1.95-1.583 3.53-3.533 3.533h-0z"></path>
</symbol>
<symbol id="icon-mail" viewBox="0 0 32 32">
<path fill="#449399" style="fill: var(--color2, #449399)" d="M16 20.117c-0.001 0-0.002 0-0.003 0-0.549 0-1.047-0.222-1.409-0.58l0 0-11.256-11.208v15.615c0.005 1.030 0.788 1.875 1.791 1.979l0.009 0.001 6.391-6.39c0.119-0.114 0.282-0.184 0.46-0.184 0.368 0 0.667 0.299 0.667 0.667 0 0.178-0.070 0.341-0.184 0.46l-5.469 5.467h18l-5.465-5.468c-0.114-0.119-0.184-0.282-0.184-0.46 0-0.368 0.299-0.667 0.667-0.667 0.178 0 0.341 0.070 0.46 0.184l6.39 6.39c1.012-0.105 1.795-0.95 1.8-1.979v-15.614l-11.255 11.206c-0.361 0.359-0.86 0.581-1.409 0.581-0.001 0-0.001 0-0.002 0h0z"></path>
<path fill="#449399" style="fill: var(--color2, #449399)" d="M16.471 18.592l11.785-11.736c-0.366-0.486-0.941-0.798-1.589-0.8h-21.334c-0.648 0.002-1.223 0.314-1.585 0.795l-0.004 0.005 11.784 11.736c0.121 0.12 0.287 0.195 0.472 0.195s0.351-0.074 0.472-0.195l-0 0z"></path>
</symbol>
<symbol id="icon-mark" viewBox="0 0 32 32">
<path d="M15.959 32c-1.221 0-2.361-0.489-3.176-1.303l-11.481-11.562c-1.71-1.71-1.71-4.56 0-6.351 0 0 0 0 0 0l11.481-11.481c1.71-1.71 4.56-1.71 6.351 0 0 0 0 0 0 0l11.481 11.481c1.71 1.791 1.71 4.56 0 6.351l-11.481 11.481c-0.814 0.896-1.954 1.303-3.176 1.384zM15.959 2.443c-0.57 0-1.059 0.244-1.466 0.57l-11.481 11.481c-0.814 0.814-0.814 2.117 0 2.85l11.481 11.481c0.814 0.733 2.036 0.733 2.85 0l11.481-11.481c0.814-0.814 0.814-2.117 0-2.85l-11.399-11.481c-0.407-0.407-0.896-0.57-1.466-0.57z"></path>
<path d="M17.343 9.282l5.374 5.374c0.733 0.733 0.733 1.954 0 2.687l-5.374 5.374c-0.733 0.733-1.954 0.733-2.687 0l-5.374-5.374c-0.733-0.733-0.733-1.954 0-2.687l5.374-5.374c0.733-0.733 1.873-0.733 2.687 0z"></path>
</symbol>
<symbol id="icon-phone" viewBox="0 0 32 32">
<path fill="#449399" style="fill: var(--color2, #449399)" d="M16.653 24c0 0.368-0.299 0.667-0.667 0.667s-0.667-0.299-0.667-0.667c0-0.368 0.299-0.667 0.667-0.667s0.667 0.299 0.667 0.667z"></path>
<path fill="#449399" style="fill: var(--color2, #449399)" d="M21.986 3.333h-11.972c-1.105 0-2 0.895-2 2v0 21.333c0 1.105 0.895 2 2 2v0h11.972c1.105 0 2-0.895 2-2v0-21.333c0-1.105-0.895-2-2-2v0zM15.986 26c-1.105 0-2-0.895-2-2s0.895-2 2-2c1.105 0 2 0.895 2 2v0c0 1.105-0.895 2-2 2v0zM17.986 8.667h-4c-0.357-0.014-0.641-0.307-0.641-0.666s0.284-0.652 0.64-0.666l0.001-0h4c0.008-0 0.017-0 0.026-0 0.368 0 0.667 0.299 0.667 0.667s-0.299 0.667-0.667 0.667c-0.009 0-0.018-0-0.027-0.001l0.001 0z"></path>
</symbol>
<symbol id="icon-sub-mark" viewBox="0 0 32 32">
<path fill="#c1c4ca" style="fill: var(--color1, #c1c4ca)" d="M16 32c-2.162 0-4.18-0.865-5.622-2.306l-8.072-8.072c-3.027-3.027-3.027-8.072 0-11.243 0 0 0 0 0 0l8.072-8.072c3.027-3.027 8.072-3.027 11.243 0 0 0 0 0 0 0l8.072 8.072c3.027 3.027 3.027 8.072 0 11.243 0 0 0 0 0 0l-8.072 8.072c-1.586 1.441-3.604 2.306-5.622 2.306zM13.405 26.523c1.441 1.441 3.748 1.441 5.045 0l8.072-8.072c1.441-1.441 1.441-3.604 0-5.045 0 0 0 0 0 0l-8.072-8.072c-1.441-1.441-3.748-1.441-5.045 0l-8.072 8.072c-1.441 1.441-1.441 3.604 0 5.045 0 0 0 0 0 0l8.072 8.072z"></path>
</symbol>
<symbol id="icon-background-bottom" viewBox="0 0 45 32">
<path d="M41.491 23.141c0.157-0.010 0.317-0.017 0.479-0.019 1.075 0.163 2.178 0.456 3.241 0.88l0.028-0.071c-0.911-0.364-1.852-0.631-2.781-0.804 0.836 0.032 1.742 0.179 2.755 0.512l0.024-0.072c-1.224-0.402-2.293-0.537-3.269-0.522-0.005-0.001-0.010-0.002-0.016-0.002 0.889-0.155 1.929-0.139 3.263 0.234l0.020-0.073c-1.46-0.408-2.571-0.394-3.517-0.193-0.032-0.004-0.063-0.008-0.094-0.012 0.884-0.346 1.989-0.476 3.592-0.084l0.018-0.074c-1.705-0.416-2.852-0.251-3.768 0.139-0.042-0.005-0.083-0.009-0.125-0.014 0.862-0.54 2.014-0.819 3.876-0.415l0.016-0.074c-1.952-0.423-3.133-0.107-4.016 0.477-0.046-0.004-0.092-0.008-0.138-0.012 0.163-0.143 0.34-0.275 0.535-0.391 0.906-0.541 2.085-0.659 3.604-0.362l0.015-0.075c-1.538-0.3-2.735-0.179-3.658 0.372-0.221 0.132-0.419 0.284-0.6 0.448-0.051-0.004-0.101-0.008-0.151-0.011 0.168-0.194 0.354-0.374 0.567-0.533 0.907-0.677 2.159-0.862 3.828-0.565l0.013-0.075c-1.691-0.301-2.962-0.112-3.887 0.579-0.233 0.174-0.436 0.373-0.617 0.588-0.053-0.003-0.105-0.006-0.157-0.008 0.168-0.246 0.359-0.473 0.584-0.675 0.91-0.818 2.239-1.070 4.064-0.771l0.012-0.075c-2.678-0.439-3.971 0.358-4.747 1.518-1.927-0.075-3.651 0.297-4.742 1.114-0.506 0.379-0.857 0.843-1.044 1.371-0.197 0.2-0.362 0.41-0.493 0.631-0.258 0.181-0.492 0.375-0.699 0.585-0.305 0.128-0.605 0.263-0.901 0.408-0.031 0.015-0.064 0.032-0.097 0.050-0.18 0.027-0.363 0.053-0.549 0.079-0.2 0.028-0.395 0.074-0.585 0.136-0.022-0.001-0.043-0.003-0.064-0.004-0.354-0.023-0.704 0.001-1.049 0.070-0.395-0.048-0.781-0.048-1.156-0.002-1.139-0.169-2.185 0.005-3.119 0.52-2.261 1.246-3.104 4.1-3.112 4.128l0.073 0.021c0.008-0.028 0.842-2.852 3.076-4.083 0.847-0.467 1.788-0.648 2.809-0.544-0.379 0.071-0.747 0.19-1.102 0.359-0.721 0.343-1.39 0.888-1.989 1.618-1.018 1.242-1.487 2.613-1.492 2.627l0.072 0.024c0.005-0.014 0.47-1.373 1.48-2.604 0.592-0.722 1.252-1.259 1.963-1.597 0.429-0.204 0.877-0.335 1.342-0.393 0.175 0.026 0.351 0.060 0.53 0.103-0.271 0.1-0.538 0.229-0.8 0.389-0.627 0.381-1.225 0.93-1.778 1.632-0.94 1.193-1.43 2.432-1.435 2.445l0.071 0.028c0.005-0.012 0.492-1.243 1.425-2.427 0.547-0.694 1.138-1.237 1.757-1.613 0.291-0.177 0.589-0.317 0.892-0.42 0.072 0.018 0.143 0.038 0.216 0.059 0.145 0.042 0.288 0.083 0.428 0.122-0.846 0.53-1.549 1.31-2.057 1.988-0.855 1.143-1.354 2.251-1.359 2.262l0.069 0.031c0.005-0.011 0.5-1.112 1.351-2.249 0.514-0.688 1.231-1.481 2.094-2.005 0.266 0.073 0.523 0.141 0.771 0.203-0.489 0.456-1.048 1.086-1.659 1.958-0.761 1.087-1.248 2.050-1.252 2.059l0.068 0.034c0.005-0.010 0.49-0.968 1.247-2.051 0.623-0.89 1.19-1.525 1.684-1.979 0.311 0.076 0.609 0.144 0.895 0.203-1.294 1.795-2.504 3.766-2.519 3.791l0.065 0.040c0.015-0.025 1.237-2.014 2.536-3.814 0.359 0.072 0.699 0.13 1.021 0.174-0.878 2.081-2.226 3.575-2.243 3.594l0.056 0.051c0.017-0.019 1.381-1.53 2.265-3.634 0.374 0.049 0.724 0.079 1.053 0.091-0.161 0.968-0.511 1.704-0.837 2.213-0.55 0.858-1.151 1.269-1.157 1.273l0.043 0.063c0.006-0.004 0.618-0.423 1.176-1.292 0.332-0.517 0.69-1.268 0.852-2.255 0.162 0.005 0.319 0.005 0.472 0 1.149-0.034 2.082-0.318 3.025-0.923 0.789-0.506 1.149-1.496 1.53-2.544 0.010-0.029 0.021-0.058 0.031-0.086 0.031-0.062 0.062-0.125 0.092-0.188 0.063-0.129 0.127-0.259 0.193-0.388 0.109-0.161 0.219-0.322 0.335-0.48 0.122-0.123 0.246-0.245 0.375-0.363 0.134-0.085 0.272-0.167 0.414-0.244 0.146-0.047 0.294-0.090 0.447-0.128zM38.056 26.861c-0.959 0.546-1.866 0.834-2.94 0.931-0.151 0.014-0.305 0.023-0.464 0.030 0.010-0.162 0.015-0.33 0.014-0.502 1.278-0.146 2.349-0.476 3.449-1.027 0.628-0.314 1.057-0.847 1.468-1.439-0.006 0.016-0.012 0.032-0.018 0.048-0.402 0.812-0.806 1.56-1.508 1.96zM31.385 27.354c0.206 0.013 0.406 0.023 0.602 0.032-0.089 0.063-0.182 0.133-0.278 0.21-0.213-0.034-0.432-0.072-0.658-0.114 0.11-0.048 0.221-0.090 0.334-0.127zM32.112 27.392c0.252 0.010 0.496 0.015 0.732 0.016-0.079 0.103-0.158 0.208-0.237 0.315-0.255-0.030-0.521-0.067-0.797-0.11 0.105-0.082 0.206-0.155 0.302-0.221zM33.128 27.043c-0.075 0.094-0.15 0.191-0.225 0.289-0.22-0.001-0.447-0.005-0.681-0.013 0.111-0.072 0.215-0.132 0.311-0.183 0.202-0.030 0.4-0.061 0.595-0.093zM33.982 26.494c-0.033 0.092-0.061 0.185-0.083 0.28-0.005 0.020-0.010 0.041-0.015 0.061-0.188 0.035-0.379 0.069-0.573 0.101 0.069-0.086 0.145-0.173 0.231-0.263 0.146-0.061 0.292-0.121 0.44-0.179zM38.196 23.753c0.109-0.026 0.219-0.053 0.328-0.080 0.563-0.137 1.131-0.275 1.724-0.38-0.043 0.078-0.084 0.158-0.124 0.238-0.164 0.069-0.327 0.139-0.489 0.209-0.473 0.205-0.962 0.417-1.482 0.575-1.188 0.361-2.448 0.799-3.469 1.399 0.022-0.097 0.049-0.192 0.082-0.285 0.726-0.729 1.893-1.306 3.43-1.676zM40.879 23.199c-0.032 0.025-0.063 0.051-0.094 0.076-0.023 0.008-0.047 0.016-0.070 0.025 0.028-0.031 0.057-0.061 0.085-0.091 0.026-0.003 0.052-0.007 0.078-0.010zM39.69 24.56c-0.461 0.682-0.912 1.315-1.61 1.664-1.089 0.545-2.151 0.873-3.416 1.018-0.003-0.156-0.011-0.317-0.024-0.481 1.206-0.259 2.328-0.597 3.495-1.103 0.651-0.283 1.13-0.749 1.615-1.256-0.020 0.053-0.040 0.106-0.060 0.159zM34.588 27.251c-0.243 0.026-0.494 0.047-0.754 0.060 0.040-0.135 0.078-0.272 0.112-0.41 0.209-0.039 0.415-0.080 0.619-0.123 0.013 0.162 0.020 0.32 0.023 0.474zM34.63 26.647c-0.013-0.134-0.017-0.265-0.013-0.393 0.529-0.193 1.071-0.377 1.627-0.564 0.617-0.209 1.256-0.424 1.911-0.666 0.657-0.242 1.208-0.632 1.74-1.010 0.005-0.003 0.009-0.007 0.014-0.010-0.030 0.070-0.058 0.141-0.087 0.211-0.524 0.553-1.024 1.072-1.718 1.374-1.158 0.502-2.273 0.838-3.471 1.097-0.001-0.013-0.002-0.025-0.003-0.038zM39.966 24.064c0.020-0.048 0.041-0.096 0.061-0.144 0.018-0.013 0.037-0.026 0.055-0.039-0.026 0.047-0.051 0.093-0.076 0.14-0.014 0.014-0.027 0.028-0.041 0.043zM40.087 23.785c0.030-0.065 0.060-0.129 0.091-0.193 0.032-0.013 0.064-0.026 0.095-0.039-0.036 0.058-0.071 0.116-0.105 0.175-0.027 0.019-0.055 0.038-0.082 0.057zM40.318 23.625c0.025-0.041 0.051-0.081 0.076-0.122 0.023-0.009 0.047-0.019 0.070-0.028-0.030 0.037-0.059 0.073-0.088 0.111-0.019 0.013-0.039 0.026-0.058 0.039zM40.231 23.778c-0.004 0.005-0.008 0.010-0.011 0.016 0.002-0.004 0.005-0.009 0.007-0.013 0.001-0.001 0.003-0.002 0.004-0.003zM40.623 23.415c-0.012 0.011-0.025 0.022-0.037 0.033 0.008-0.009 0.016-0.019 0.024-0.028 0.004-0.002 0.009-0.003 0.013-0.005zM40.565 23.356c-0.033 0.012-0.066 0.025-0.098 0.038 0.034-0.052 0.070-0.102 0.106-0.153 0.036-0.005 0.072-0.011 0.109-0.016-0.039 0.043-0.078 0.087-0.116 0.131zM40.343 23.442c-0.038 0.015-0.075 0.030-0.113 0.046 0.036-0.071 0.074-0.141 0.113-0.211 0.041-0.007 0.083-0.014 0.124-0.020-0.042 0.061-0.084 0.123-0.124 0.185zM38.176 24.388c0.524-0.16 1.015-0.372 1.49-0.578 0.135-0.059 0.271-0.117 0.408-0.175-0.037 0.078-0.073 0.156-0.107 0.234-0.039 0.027-0.077 0.055-0.116 0.082-0.553 0.392-1.075 0.762-1.722 1-0.655 0.241-1.293 0.457-1.909 0.665-0.546 0.184-1.079 0.365-1.599 0.554 0.007-0.123 0.022-0.244 0.044-0.362 0.737-0.435 1.826-0.909 3.511-1.422zM34.543 26.2c-0.143 0.052-0.285 0.106-0.426 0.16 0.044-0.102 0.095-0.202 0.153-0.299 0.095-0.065 0.197-0.132 0.308-0.199-0.018 0.111-0.030 0.223-0.035 0.338zM34.541 26.282c-0.002 0.122 0.002 0.246 0.014 0.372 0.001 0.016 0.002 0.031 0.004 0.047-0.195 0.041-0.393 0.081-0.593 0.119 0.002-0.009 0.005-0.019 0.007-0.028 0.027-0.114 0.062-0.225 0.105-0.334 0.153-0.059 0.308-0.118 0.463-0.175zM33.864 26.916c-0.034 0.134-0.071 0.267-0.11 0.399-0.243 0.011-0.495 0.017-0.755 0.018 0.081-0.105 0.161-0.207 0.241-0.307 0.212-0.035 0.42-0.071 0.625-0.109zM32.94 27.408c0.273 0 0.536-0.005 0.79-0.017-0.044 0.141-0.090 0.281-0.139 0.418-0.285-0.016-0.583-0.041-0.896-0.077 0.082-0.11 0.164-0.218 0.245-0.324zM33.811 27.388c0.269-0.013 0.527-0.034 0.778-0.061 0.001 0.171-0.004 0.336-0.014 0.497-0.287 0.009-0.587 0.005-0.905-0.010 0.050-0.14 0.097-0.282 0.141-0.426zM40.999 23.203c0.009-0.007 0.019-0.014 0.029-0.021 0.007-0.001 0.014-0.002 0.021-0.002-0.012 0.007-0.025 0.013-0.037 0.020-0.004 0.001-0.008 0.003-0.013 0.004zM41.503 23.059c-0.009 0.002-0.017 0.004-0.026 0.007-0.007 0-0.014 0.001-0.020 0.001 0.008-0.004 0.016-0.007 0.024-0.010 0.007 0.001 0.014 0.002 0.021 0.002zM41.33 23.040c-0.032 0.015-0.063 0.029-0.094 0.045-0.028 0.003-0.056 0.005-0.084 0.008 0.029-0.021 0.059-0.041 0.089-0.061 0.030 0.003 0.060 0.006 0.089 0.009zM41.12 23.019c-0.042 0.029-0.082 0.059-0.123 0.089-0.037 0.004-0.073 0.008-0.109 0.013 0.038-0.038 0.077-0.075 0.116-0.111 0.038 0.003 0.077 0.006 0.116 0.010zM40.9 23.002c-0.046 0.044-0.091 0.089-0.135 0.135-0.043 0.006-0.086 0.012-0.129 0.018 0.041-0.055 0.084-0.109 0.128-0.162 0.045 0.003 0.091 0.006 0.136 0.009zM40.669 22.987c-0.048 0.060-0.095 0.121-0.14 0.183-0.046 0.007-0.092 0.014-0.138 0.022 0.042-0.072 0.086-0.143 0.131-0.212 0.049 0.002 0.098 0.005 0.147 0.007zM35.788 24.079c1.070-0.801 2.758-1.17 4.648-1.102-0.049 0.076-0.095 0.153-0.14 0.231-0.617 0.106-1.207 0.249-1.79 0.391-0.109 0.027-0.218 0.053-0.328 0.080-1.47 0.354-2.606 0.897-3.348 1.583 0.193-0.452 0.514-0.851 0.958-1.183zM34.646 25.555c-0.020 0.069-0.037 0.14-0.051 0.212-0.079 0.048-0.156 0.097-0.231 0.146 0.083-0.123 0.177-0.242 0.282-0.358zM34.127 26.162c-0.040 0.078-0.077 0.156-0.109 0.236-0.112 0.044-0.224 0.088-0.335 0.133 0.126-0.119 0.272-0.243 0.444-0.37zM33.376 26.743c-0.044 0.049-0.086 0.098-0.127 0.148-0.017 0.021-0.034 0.042-0.051 0.064-0.146 0.024-0.294 0.047-0.443 0.071 0.205-0.098 0.412-0.192 0.621-0.282zM31.97 27.217c0.119-0.017 0.236-0.033 0.353-0.050-0.074 0.044-0.152 0.093-0.233 0.148-0.16-0.006-0.323-0.014-0.489-0.023 0.121-0.031 0.244-0.057 0.369-0.074zM31.188 27.344c-0.090 0.035-0.179 0.072-0.267 0.113-0.086-0.016-0.173-0.033-0.262-0.051-0.052-0.010-0.103-0.019-0.155-0.028 0.226-0.031 0.454-0.043 0.683-0.035zM29.397 27.392c0.207-0.012 0.417-0.011 0.631 0.006-0.087 0.023-0.174 0.049-0.261 0.078-0.124-0.032-0.247-0.059-0.37-0.083zM30.005 27.54c-0.034-0.010-0.069-0.019-0.103-0.029 0.12-0.036 0.241-0.066 0.362-0.091 0.126 0.016 0.252 0.036 0.379 0.061 0.054 0.011 0.108 0.021 0.162 0.032-0.104 0.052-0.205 0.108-0.305 0.168-0.162-0.045-0.327-0.091-0.496-0.141zM30.603 27.709c0.107-0.062 0.216-0.119 0.328-0.172 0.24 0.046 0.474 0.087 0.699 0.124-0.090 0.075-0.184 0.155-0.28 0.243-0.24-0.059-0.489-0.124-0.747-0.195zM31.439 27.925c0.1-0.090 0.197-0.173 0.291-0.248 0.286 0.046 0.561 0.084 0.825 0.116-0.080 0.108-0.16 0.218-0.24 0.329-0.278-0.057-0.57-0.122-0.876-0.196zM32.397 28.138c0.082-0.113 0.164-0.224 0.245-0.335 0.322 0.037 0.629 0.064 0.921 0.081-0.053 0.143-0.108 0.285-0.165 0.423-0.314-0.043-0.647-0.099-1.002-0.17zM33.477 28.318c0.058-0.141 0.114-0.284 0.167-0.429 0.325 0.017 0.633 0.021 0.926 0.012-0.013 0.175-0.033 0.344-0.058 0.507-0.32-0.012-0.664-0.041-1.035-0.090zM38.031 27.498c-0.921 0.591-1.913 0.955-3.443 0.912 0.025-0.164 0.044-0.335 0.058-0.512 0.163-0.006 0.322-0.016 0.477-0.030 1.086-0.098 2.002-0.388 2.971-0.94 0.557-0.318 0.929-0.842 1.257-1.444-0.32 0.845-0.674 1.601-1.319 2.014z"></path>
</symbol>
<symbol id="icon-background-top" viewBox="0 0 45 32">
<path d="M40.043 3.976c2.489-1.159 4.084-0.3 4.765 0.067 0.214 0.115 0.332 0.179 0.404 0.149 0.017-0.007 0.040-0.023 0.051-0.059 0.006-0.020-0.005-0.041-0.025-0.047s-0.041 0.005-0.047 0.025c-0.003 0.009-0.006 0.010-0.007 0.011-0.039 0.016-0.185-0.063-0.339-0.146-0.691-0.372-2.309-1.244-4.833-0.069-1.556 0.724-2.845 2.811-3.981 4.652-0.304 0.493-0.604 0.978-0.901 1.425-0.213-0.127-0.406-0.266-0.582-0.413 0.185-0.335 0.373-0.685 0.567-1.044 1.226-2.28 2.616-4.865 4.398-5.658 3.101-1.38 4.902 0.139 5.494 0.639 0.145 0.122 0.185 0.154 0.224 0.142 0.016-0.005 0.028-0.017 0.033-0.033 0.006-0.020-0.005-0.041-0.025-0.047-0.010-0.003-0.020-0.002-0.028 0.002-0.028-0.016-0.089-0.068-0.154-0.122-0.291-0.245-0.897-0.756-1.825-1.033-1.149-0.342-2.41-0.213-3.749 0.382-1.805 0.803-3.202 3.4-4.434 5.692-0.19 0.354-0.376 0.699-0.558 1.029-0.203-0.177-0.382-0.366-0.542-0.566 0.068-0.144 0.137-0.289 0.207-0.435 1.309-2.76 2.793-5.888 4.826-6.758 2.15-0.92 3.725-0.505 4.667 0.005 1.022 0.554 1.542 1.336 1.548 1.343 0.011 0.018 0.035 0.022 0.053 0.011s0.022-0.035 0.011-0.053c-0.005-0.008-0.534-0.804-1.572-1.367-0.957-0.519-2.556-0.943-4.736-0.010-2.060 0.882-3.55 4.023-4.865 6.795-0.064 0.135-0.128 0.269-0.191 0.402-0.602-0.778-0.926-1.699-1.243-2.6-0.45-1.279-0.876-2.487-2.079-3.041-0.346-0.159-0.694-0.221-1.051-0.185-0.073-0.005-0.146-0.005-0.219-0.001-0.075-0.009-0.15-0.013-0.226-0.014-0.074-0.013-0.148-0.023-0.224-0.029-0.058-0.015-0.118-0.028-0.178-0.038-0.068-0.024-0.139-0.046-0.211-0.065-0.078-0.036-0.159-0.068-0.243-0.097-0.050-0.027-0.101-0.053-0.154-0.078-0.567-0.377-1.336-0.633-2.378-0.721-3.067-0.259-3.861 2.909-4.499 5.454-0.055 0.221-0.11 0.438-0.164 0.647-0.244-0.046-0.49-0.1-0.738-0.155-1.144-0.254-2.327-0.516-3.742-0.095-0.087 0.026-0.172 0.057-0.257 0.092-0.87-0.576-1.915-1.088-3.129-1.53-1.674-0.61-3.671-1.089-5.933-1.425-3.851-0.572-7.185-0.529-7.219-0.529-0.021 0-0.038 0.018-0.037 0.039s0.019 0.038 0.039 0.037c0.033-0.001 3.361-0.043 7.206 0.528 2.258 0.335 4.249 0.814 5.919 1.421 1.19 0.433 2.216 0.933 3.073 1.495-0.111 0.051-0.221 0.109-0.328 0.174-1.114-0.513-2.425-0.889-3.861-1.301-0.821-0.236-1.67-0.479-2.536-0.765-4.675-1.543-9.427-1.355-9.474-1.353-0.021 0.001-0.037 0.019-0.036 0.040s0.019 0.037 0.040 0.036c0.047-0.002 4.785-0.189 9.447 1.35 0.868 0.286 1.717 0.53 2.539 0.766 1.413 0.406 2.705 0.777 3.804 1.276-0.104 0.067-0.207 0.14-0.307 0.218-0.5-0.129-1.036-0.235-1.605-0.349-1.365-0.271-2.912-0.579-4.57-1.32-2.39-1.068-4.794-1.485-6.39-1.647-1.729-0.175-2.91-0.097-2.922-0.096-0.021 0.001-0.037 0.020-0.035 0.041s0.020 0.037 0.041 0.035c0.047-0.003 4.719-0.3 9.275 1.736 1.666 0.745 3.218 1.053 4.586 1.325 0.547 0.109 1.063 0.212 1.545 0.333-0.096 0.077-0.19 0.158-0.283 0.243-0.198-0.010-0.402-0.017-0.613-0.025-1.552-0.056-3.311-0.12-5.368-1.283-2.338-1.322-4.7-1.832-6.271-2.026-1.702-0.211-2.866-0.107-2.878-0.106-0.021 0.002-0.036 0.020-0.034 0.041s0.020 0.036 0.041 0.034c0.011-0.001 1.168-0.104 2.862 0.106 1.563 0.194 3.915 0.701 6.243 2.017 2.072 1.172 3.841 1.236 5.402 1.292 0.184 0.007 0.363 0.013 0.538 0.021-0.087 0.082-0.173 0.167-0.259 0.254-0.044 0.007-0.089 0.015-0.134 0.022-1.593 0.266-3.399 0.568-5.675-0.993-2.289-1.57-4.609-2.172-6.153-2.401-1.673-0.248-2.821-0.122-2.832-0.121-0.021 0.002-0.036 0.021-0.033 0.042s0.021 0.036 0.042 0.033c0.011-0.001 1.151-0.126 2.815 0.121 1.535 0.228 3.842 0.827 6.118 2.388 1.396 0.957 2.615 1.222 3.717 1.222 0.715 0 1.381-0.111 2.013-0.217 0.011-0.002 0.022-0.004 0.033-0.005-0.077 0.081-0.154 0.164-0.23 0.248-0.775 0.306-1.579 0.611-2.48 0.621-1.065 0.012-2.104-0.402-3.175-1.268-2.243-1.813-4.521-2.509-6.037-2.773-1.643-0.286-2.772-0.141-2.783-0.139-0.021 0.003-0.035 0.022-0.033 0.043s0.022 0.035 0.043 0.033c0.011-0.002 1.128-0.145 2.76 0.139 1.507 0.262 3.772 0.954 6.003 2.757 2.311 1.868 4.056 1.314 5.59 0.713-0.064 0.073-0.128 0.146-0.192 0.22-1.54 0.984-3.159 1.87-5.516-0.328-2.202-2.054-4.437-2.842-5.924-3.142-1.613-0.325-2.721-0.161-2.732-0.16-0.021 0.003-0.035 0.023-0.032 0.043s0.023 0.035 0.043 0.032c0.011-0.002 1.108-0.163 2.709 0.16 1.477 0.298 3.696 1.082 5.884 3.122 1.119 1.044 2.179 1.49 3.242 1.365 0.78-0.092 1.483-0.474 2.157-0.896-0.042 0.049-0.084 0.099-0.126 0.148-0.701 0.628-1.429 1.231-2.236 1.413-1.004 0.226-2.035-0.239-3.151-1.421-2.164-2.293-4.356-3.175-5.814-3.51-1.581-0.364-2.667-0.183-2.678-0.181-0.021 0.004-0.035 0.023-0.031 0.044s0.023 0.035 0.044 0.031c0.011-0.002 1.084-0.181 2.652 0.181 1.447 0.334 3.622 1.21 5.771 3.488 1.033 1.094 1.914 1.499 2.702 1.499 0.892-0 1.664-0.519 2.401-1.145-0.853 0.993-1.686 1.855-2.703 1.855-0.001 0-0.003 0-0.004 0-0.784-0.002-1.604-0.524-2.506-1.597-2.129-2.531-4.278-3.506-5.705-3.878-1.549-0.404-2.61-0.205-2.621-0.203-0.021 0.004-0.034 0.024-0.030 0.045s0.024 0.034 0.045 0.030c0.010-0.002 1.058-0.198 2.592 0.203 1.416 0.37 3.547 1.339 5.662 3.853 0.918 1.091 1.756 1.622 2.564 1.624 0.001 0 0.003 0 0.004 0 1.166-0 2.081-1.078 3.049-2.219 0.016-0.019 0.032-0.038 0.048-0.057 0.078-0.070 0.155-0.14 0.233-0.21 0.12-0.108 0.241-0.218 0.363-0.326 0.214-0.137 0.425-0.27 0.634-0.392 0.231-0.085 0.458-0.162 0.683-0.221 0.256-0.020 0.506-0.024 0.75-0.002 0.11 0.027 0.218 0.058 0.324 0.094 0.124 0.042 0.24 0.081 0.351 0.117 0.21 0.122 0.392 0.221 0.555 0.3 0.184 0.142 0.352 0.258 0.509 0.352 0.593 0.543 1.076 0.761 1.465 0.663 0.622-0.157 0.955-1.091 1.269-2.276 0.002-0.005 0.004-0.010 0.006-0.015 0-0 0.001-0.001 0.001-0.001 0.003-0.003 0.006-0.007 0.008-0.010 0.008-0.004 0.015-0.007 0.022-0.011 0.003 0 0.006-0 0.009-0 0.92 0.163 1.818 0.188 2.757-0.354 0.84-0.485 1.63-1.375 2.394-2.236 0.808-0.91 1.589-1.791 2.413-2.223 0.173 0.212 0.318 0.449 0.435 0.712 0.478 1.078 0.455 2.472 0.432 3.82-0.029 1.719-0.056 3.343 0.863 4.386 0.251 0.285 0.503 0.425 0.766 0.425 0.035 0 0.071-0.002 0.106-0.008 0.175-0.025 0.348-0.111 0.522-0.25 0.034 0.004 0.069 0.006 0.103 0.006 0.046 0 0.091-0.003 0.137-0.010 0.187-0.027 0.372-0.108 0.556-0.236 0.022 0.001 0.044 0.002 0.065 0.002 0.056 0 0.113-0.004 0.171-0.012 0.198-0.028 0.394-0.105 0.589-0.223 0.013 0 0.026 0.001 0.040 0.001 0.067 0 0.135-0.004 0.202-0.013 0.215-0.028 0.427-0.1 0.636-0.208 0.009 0 0.018 0.001 0.028 0.001 0.293 0 0.589-0.064 0.891-0.19 0.027 0.001 0.053 0.002 0.080 0.002 0.312-0 0.614-0.055 0.91-0.151 0.088 0.006 0.175 0.010 0.263 0.010 0.267 0 0.535-0.029 0.804-0.085 0.253 0.035 0.504 0.054 0.755 0.054 0.135 0 0.27-0.006 0.405-0.016 1.418 0.35 2.65 0.311 3.681-0.12 1.446-0.603 2.503-1.971 3.142-4.064 0.006-0.020-0.005-0.041-0.025-0.047s-0.041 0.005-0.047 0.025c-0.633 2.071-1.675 3.422-3.099 4.016-0.964 0.402-2.107 0.457-3.417 0.167 0.221-0.027 0.442-0.067 0.662-0.122 1.327-0.329 2.459-1.124 3.369-1.762 1.345-0.944 2.188-1.584 2.558-2.793 0.006-0.020-0.005-0.041-0.025-0.047s-0.041 0.005-0.047 0.025c-0.363 1.188-1.157 1.79-2.529 2.753-0.904 0.635-2.030 1.425-3.344 1.751-0.29 0.072-0.58 0.119-0.872 0.142-0.173-0.043-0.349-0.092-0.527-0.147 1.011-0.373 1.922-1.072 2.805-1.75 0.499-0.383 0.971-0.745 1.448-1.041 0.574-0.356 1.060-0.597 1.488-0.809 0.835-0.414 1.386-0.687 1.602-1.395 0.006-0.020-0.005-0.041-0.025-0.047s-0.041 0.005-0.047 0.025c-0.207 0.677-0.717 0.93-1.563 1.349-0.409 0.203-0.917 0.455-1.495 0.812-0.481 0.298-0.954 0.661-1.454 1.045-0.906 0.695-1.842 1.413-2.88 1.773-0.187-0.059-0.376-0.126-0.569-0.198 0.731-0.467 1.426-1.128 2.112-1.78 0.744-0.708 1.514-1.44 2.299-1.883 1.035-0.583 1.849-0.771 2.443-0.909 0.647-0.15 1.038-0.24 1.18-0.705 0.006-0.020-0.005-0.041-0.025-0.047s-0.041 0.005-0.047 0.025c-0.129 0.423-0.504 0.51-1.124 0.653-0.599 0.138-1.419 0.328-2.464 0.917-0.794 0.447-1.567 1.183-2.315 1.894-0.693 0.659-1.405 1.336-2.147 1.802-0.193-0.074-0.389-0.154-0.587-0.24 0.54-0.498 1.071-1.116 1.622-1.756 0.928-1.079 1.887-2.194 2.933-2.74 1.487-0.776 2.553-0.749 3.258-0.731 0.483 0.012 0.802 0.021 0.897-0.292 0.006-0.020-0.005-0.041-0.025-0.047s-0.041 0.005-0.047 0.025c-0.079 0.258-0.343 0.251-0.823 0.239-0.67-0.017-1.791-0.046-3.295 0.74-1.059 0.553-2.023 1.674-2.955 2.758-0.551 0.641-1.092 1.27-1.64 1.773-0.198-0.087-0.399-0.18-0.603-0.279 0.408-0.495 0.817-1.062 1.234-1.64 1.069-1.483 2.175-3.017 3.467-3.651 1.964-0.964 3.303-0.592 4.023-0.393 0.362 0.101 0.601 0.167 0.665-0.040 0.006-0.020-0.005-0.041-0.025-0.047s-0.041 0.005-0.047 0.025c-0.040 0.131-0.204 0.091-0.572-0.011-0.729-0.202-2.086-0.579-4.076 0.398-1.309 0.642-2.421 2.184-3.496 3.675-0.42 0.583-0.832 1.154-1.242 1.65-0.146-0.072-0.293-0.146-0.441-0.224-0.057-0.030-0.113-0.061-0.168-0.093 0.297-0.447 0.596-0.932 0.9-1.424 1.131-1.832 2.413-3.908 3.949-4.623zM35.087 10.048c-0.087 0.13-0.174 0.257-0.261 0.38-0.025-0.014-0.050-0.028-0.076-0.042-0.174-0.099-0.333-0.207-0.481-0.32 0.080-0.139 0.16-0.282 0.242-0.429 0.174 0.147 0.366 0.285 0.576 0.411zM35.65 11.297c-0.163-0.036-0.327-0.083-0.491-0.142 0.104-0.099 0.207-0.205 0.31-0.316 0.177 0.080 0.353 0.153 0.529 0.217-0.115 0.088-0.232 0.168-0.348 0.241zM36.083 11.086c0.163 0.057 0.325 0.108 0.487 0.151-0.122 0.055-0.244 0.103-0.364 0.143-0.15-0.011-0.3-0.031-0.45-0.060 0.11-0.071 0.219-0.149 0.328-0.233zM35.217 11.527c-0.143-0.005-0.286-0.021-0.428-0.049 0.103-0.081 0.206-0.169 0.309-0.264 0.153 0.056 0.306 0.103 0.459 0.14-0.112 0.066-0.226 0.124-0.34 0.173zM34.28 11.721c-0.132-0.004-0.266-0.021-0.401-0.053 0.099-0.091 0.199-0.191 0.298-0.299 0.147 0.062 0.291 0.111 0.434 0.148-0.11 0.078-0.22 0.146-0.33 0.204zM33.406 11.939c-0.127-0.005-0.254-0.028-0.38-0.067 0.096-0.102 0.192-0.215 0.288-0.337 0.137 0.071 0.274 0.127 0.412 0.168-0.107 0.090-0.213 0.169-0.32 0.235zM32.581 12.171c-0.126-0.010-0.25-0.041-0.374-0.094 0.094-0.115 0.187-0.243 0.282-0.382 0.134 0.089 0.267 0.159 0.401 0.211-0.103 0.102-0.206 0.191-0.309 0.265zM18.379 9.804c-0.036-0.033-0.072-0.067-0.109-0.103 0.012 0.004 0.025 0.009 0.037 0.013 1.202 0.4 1.906-0.121 2.511-1.051-0.298 0.683-0.626 1.199-1.078 1.386-0.317 0.131-0.68 0.095-1.111-0.11-0.081-0.038-0.164-0.083-0.25-0.135zM15.026 9.196c0.045-0.037 0.091-0.072 0.137-0.108 0.040-0.006 0.080-0.012 0.119-0.018-0.050 0.028-0.101 0.057-0.151 0.086-0.035 0.013-0.070 0.026-0.105 0.039zM33.618 10.984c-0.031-0.020-0.061-0.040-0.092-0.061-0.144-0.098-0.276-0.204-0.398-0.315 0.080-0.151 0.161-0.309 0.243-0.47 0.152 0.155 0.322 0.3 0.51 0.435-0.088 0.143-0.176 0.281-0.263 0.412zM33.942 10.616c0.051 0.035 0.102 0.069 0.155 0.102 0.119 0.075 0.238 0.143 0.357 0.206-0.099 0.125-0.198 0.243-0.297 0.353-0.159-0.070-0.318-0.154-0.477-0.253 0.087-0.13 0.174-0.266 0.261-0.408zM28.525 3.112c-0.006-0.005-0.011-0.011-0.017-0.016 0.003-0 0.006-0 0.008-0.001 0.006 0.005 0.013 0.010 0.019 0.014-0.004 0.001-0.008 0.002-0.011 0.003zM18.139 9.571c-0.049-0.050-0.099-0.102-0.15-0.157 0.010 0.002 0.020 0.004 0.030 0.006 0.266 0.054 0.511 0.080 0.739 0.080 0.865-0 1.488-0.369 2.053-0.963-0.177 0.282-0.36 0.528-0.561 0.725-0.529 0.519-1.139 0.64-1.918 0.38-0.063-0.021-0.127-0.045-0.193-0.071zM17.583 9.221c-0.050-0.042-0.102-0.084-0.154-0.124 0.056 0.006 0.113 0.012 0.169 0.018 0.056 0.056 0.111 0.112 0.164 0.168-0.052-0.014-0.104-0.028-0.158-0.044-0.007-0.006-0.014-0.011-0.021-0.017zM16.975 8.967c-0.073-0.036-0.147-0.071-0.222-0.104 0.068-0.005 0.134-0.009 0.2-0.013 0.069 0.045 0.137 0.091 0.204 0.139-0.007-0.001-0.014-0.002-0.022-0.003-0.053-0.006-0.107-0.012-0.16-0.019zM16.217 8.847c-0.072-0.012-0.144-0.022-0.217-0.032 0.002-0.001 0.004-0.001 0.006-0.002 0.072-0.027 0.145-0.052 0.219-0.075 0.073 0.025 0.145 0.051 0.216 0.079-0.047 0.005-0.093 0.011-0.14 0.018-0.028 0.004-0.056 0.008-0.083 0.013zM16.348 8.7c0.084-0.024 0.169-0.047 0.254-0.067 0.082 0.048 0.164 0.096 0.243 0.147-0.079 0.005-0.16 0.011-0.242 0.019-0.084-0.034-0.169-0.068-0.255-0.099zM31.521 6.87c-0.272-1.36-0.529-2.645-1.511-3.397-0.165-0.126-0.332-0.223-0.503-0.296 0.218 0.052 0.433 0.145 0.648 0.284 1.030 0.667 1.339 1.911 1.667 3.228 0.302 1.213 0.612 2.459 1.493 3.39-0.082 0.164-0.164 0.322-0.245 0.475-1.004-0.957-1.281-2.341-1.549-3.685zM17.632 9.041c-0.071-0.070-0.145-0.14-0.221-0.209 0.009-0 0.019-0.001 0.027-0.001 1.395-0.031 2.402-0.107 3.338-0.473-0.821 0.569-1.715 0.806-3.041 0.692-0.034-0.003-0.069-0.006-0.103-0.010zM28.208 2.943c-0.547 0-1.148 0.144-1.811 0.361-1.41 0.46-2.412 1.645-3.297 2.69l-0.126 0.149c-0.616 0.726-1.135 1.322-1.651 1.782 0.248-0.327 0.495-0.692 0.758-1.081 0.232-0.343 0.473-0.698 0.74-1.070 0.826-1.146 1.84-2.396 3.414-2.717 0.799-0.164 1.439-0.205 1.968-0.117 0.001 0.001 0.003 0.002 0.004 0.003zM23.032 6.191l0.126-0.149c0.878-1.038 1.873-2.214 3.262-2.667 0.696-0.228 1.32-0.373 1.884-0.354 0.006 0.005 0.013 0.011 0.019 0.016-0.529 0.070-1.104 0.286-1.75 0.588-1.084 0.505-1.971 1.445-2.754 2.275-0.218 0.231-0.424 0.449-0.63 0.655-0.67 0.669-1.257 1.132-1.845 1.453 0.529-0.467 1.058-1.074 1.688-1.817zM26.22 2.982c-1.601 0.327-2.626 1.589-3.461 2.747-0.268 0.372-0.509 0.728-0.742 1.072-0.257 0.38-0.496 0.733-0.731 1.048 0.114-0.219 0.229-0.448 0.347-0.683 0.295-0.589 0.599-1.197 0.977-1.81 0.692-1.131 1.709-2.452 3.441-2.619 0.797-0.077 1.441-0.047 1.971 0.101-0.499-0.052-1.088-0.002-1.802 0.144zM17.437 8.755c-0.035 0.001-0.072 0.002-0.108 0.003-0.081-0.072-0.164-0.142-0.25-0.213 0.023-0.003 0.046-0.007 0.069-0.009 0.737-0.089 1.396-0.115 1.977-0.137 0.59-0.023 1.133-0.044 1.661-0.127-0.938 0.375-1.946 0.453-3.349 0.484zM17.217 8.762c-0.079 0.003-0.16 0.006-0.244 0.011-0.086-0.056-0.174-0.11-0.263-0.163 0.088-0.019 0.177-0.035 0.266-0.049 0.082 0.066 0.163 0.133 0.241 0.201zM17.080 8.843c0.075-0.003 0.149-0.006 0.22-0.008 0.072 0.064 0.141 0.129 0.209 0.194-0.066-0.007-0.132-0.014-0.199-0.022-0.075-0.056-0.152-0.11-0.231-0.164zM17.716 9.125c0.004 0 0.008 0.001 0.012 0.001 1.348 0.116 2.256-0.123 3.087-0.7-0.718 0.787-1.503 1.181-2.782 0.92-0.045-0.009-0.090-0.019-0.136-0.030-0.059-0.064-0.119-0.128-0.181-0.191zM23.243 6.609c0.207-0.207 0.413-0.425 0.631-0.657 0.778-0.825 1.66-1.76 2.731-2.258 0.667-0.312 1.256-0.53 1.795-0.588 0.011 0.010 0.022 0.020 0.032 0.030-0.518 0.137-1.069 0.427-1.683 0.812-0.798 0.501-1.498 1.211-2.174 1.898-0.405 0.411-0.787 0.799-1.171 1.123-0.713 0.597-1.354 0.918-2.006 1.098 0.588-0.324 1.175-0.789 1.845-1.458zM28.737 3.15c0.006 0.004 0.011 0.007 0.017 0.011-0.008 0.002-0.015 0.005-0.023 0.007-0.006-0.005-0.011-0.010-0.017-0.015 0.008-0.001 0.015-0.002 0.023-0.003zM28.953 3.188c0.004 0.002 0.009 0.005 0.013 0.007-0.007 0.002-0.013 0.005-0.020 0.007-0.004-0.003-0.009-0.007-0.013-0.010 0.007-0.002 0.013-0.003 0.020-0.004zM29.161 3.205c0.213 0.093 0.417 0.224 0.611 0.4 0.89 0.805 1.089 2.105 1.299 3.482 0.231 1.513 0.47 3.076 1.669 4.065-0.091 0.156-0.181 0.302-0.271 0.438-0.056-0.039-0.111-0.082-0.167-0.128-1.188-0.98-1.363-2.605-1.532-4.176-0.153-1.422-0.298-2.765-1.134-3.661-0.153-0.164-0.316-0.301-0.492-0.414 0.006-0.002 0.012-0.003 0.018-0.005zM31.146 7.075c-0.213-1.39-0.413-2.704-1.323-3.526-0.173-0.156-0.353-0.279-0.54-0.372 0.234 0.071 0.46 0.187 0.681 0.356 0.96 0.735 1.214 2.006 1.483 3.352 0.272 1.363 0.554 2.767 1.587 3.739-0.086 0.161-0.17 0.314-0.255 0.461-1.168-0.972-1.404-2.515-1.633-4.010zM33.091 10.677c0.121 0.109 0.251 0.212 0.392 0.309 0.031 0.021 0.062 0.041 0.092 0.061-0.094 0.139-0.188 0.27-0.281 0.392-0.125-0.069-0.252-0.15-0.38-0.246-0.026-0.020-0.051-0.040-0.076-0.060 0.084-0.145 0.168-0.297 0.253-0.456zM33.407 10.066c0.078-0.156 0.157-0.316 0.236-0.479 0.157 0.176 0.331 0.344 0.527 0.499-0.084 0.145-0.167 0.286-0.25 0.422-0.19-0.137-0.36-0.284-0.513-0.442zM33.352 10.007c-0.853-0.917-1.159-2.142-1.455-3.336-0.331-1.332-0.644-2.589-1.699-3.273-0.152-0.099-0.305-0.174-0.457-0.23 0.202 0.038 0.404 0.11 0.608 0.222 1.101 0.603 1.466 1.821 1.852 3.11 0.319 1.065 0.646 2.155 1.389 3.026-0.080 0.164-0.159 0.325-0.237 0.482zM26.043 2.661c-1.765 0.17-2.797 1.508-3.498 2.655-0.379 0.615-0.684 1.225-0.98 1.816-0.1 0.199-0.196 0.392-0.292 0.577 0.043-0.119 0.087-0.24 0.131-0.362 0.274-0.762 0.585-1.625 0.994-2.408 0.895-1.719 1.997-2.52 3.468-2.521 0.004 0 0.007 0 0.011 0 0.745 0 1.369 0.092 1.887 0.282-0.482-0.092-1.048-0.103-1.721-0.038zM19.122 8.323c-0.583 0.023-1.244 0.048-1.983 0.138-0.047 0.006-0.094 0.012-0.141 0.019-0.088-0.070-0.178-0.14-0.271-0.208 0.044-0.011 0.087-0.022 0.131-0.031 1.165-0.248 2.17-0.165 3.058-0.092 0.278 0.023 0.548 0.045 0.813 0.057-0.501 0.074-1.024 0.095-1.605 0.117zM16.896 8.497c-0.094 0.016-0.188 0.035-0.281 0.056-0.091-0.052-0.185-0.103-0.279-0.153 0.1-0.039 0.2-0.073 0.299-0.102 0.090 0.066 0.177 0.132 0.262 0.199zM16.506 8.579c-0.094 0.024-0.188 0.050-0.28 0.079-0.088-0.030-0.177-0.059-0.268-0.087 0.095-0.049 0.19-0.094 0.285-0.134 0.089 0.046 0.177 0.093 0.263 0.142zM16.106 8.697c-0.042 0.014-0.084 0.029-0.126 0.045-0.046 0.017-0.092 0.036-0.137 0.054-0.078-0.008-0.157-0.016-0.236-0.023 0.031-0.020 0.062-0.039 0.093-0.058 0.054-0.033 0.109-0.064 0.163-0.094 0.082 0.024 0.163 0.049 0.243 0.075zM15.7 8.858c-0.075 0.034-0.15 0.070-0.225 0.109-0.062 0.008-0.123 0.016-0.185 0.025 0.071-0.052 0.142-0.102 0.213-0.15 0.067 0.005 0.132 0.011 0.197 0.017zM15.701 8.941c0.051-0.024 0.102-0.046 0.153-0.067 0.046 0.005 0.092 0.011 0.138 0.017-0.053 0.012-0.105 0.025-0.158 0.039-0.044 0.004-0.088 0.008-0.133 0.012zM16.453 8.892c0.047-0.005 0.093-0.010 0.139-0.015 0.051 0.021 0.101 0.042 0.151 0.065-0.040-0.004-0.079-0.009-0.12-0.013-0.005-0-0.010-0.001-0.014-0.001-0.052-0.013-0.104-0.025-0.156-0.036zM17.265 9.123c-0.034-0.020-0.068-0.038-0.102-0.057 0.040 0.005 0.081 0.010 0.12 0.014 0.044 0.033 0.087 0.066 0.13 0.1-0.036-0.011-0.073-0.023-0.11-0.035-0.012-0.007-0.025-0.014-0.037-0.022zM17.75 9.358c0.036 0.009 0.072 0.018 0.107 0.027 0.034 0.037 0.067 0.073 0.101 0.108-0.030-0.014-0.060-0.028-0.091-0.043-0.038-0.029-0.077-0.060-0.117-0.092zM23.453 7.027c0.388-0.327 0.771-0.716 1.177-1.128 0.673-0.684 1.37-1.391 2.16-1.887 0.625-0.393 1.183-0.685 1.706-0.814 0.013 0.013 0.026 0.027 0.039 0.040-0.515 0.204-1.043 0.57-1.609 1.032-0.537 0.438-1.050 0.97-1.546 1.484-0.601 0.623-1.17 1.212-1.761 1.628-0.758 0.531-1.464 0.712-2.186 0.75 0.656-0.184 1.308-0.509 2.019-1.105zM28.588 3.177c0.009-0.002 0.018-0.003 0.027-0.005 0.010 0.008 0.021 0.017 0.031 0.025-0.010 0.004-0.020 0.007-0.030 0.011-0.009-0.010-0.019-0.020-0.029-0.030zM28.714 3.255c0.012 0.011 0.024 0.022 0.036 0.032-0.014 0.007-0.029 0.014-0.043 0.021-0.011-0.013-0.023-0.026-0.034-0.039 0.014-0.005 0.028-0.010 0.042-0.015zM28.798 3.228c0.013-0.004 0.026-0.007 0.038-0.011 0.009 0.006 0.018 0.013 0.026 0.019-0.013 0.005-0.026 0.011-0.038 0.017-0.009-0.008-0.017-0.016-0.026-0.025zM28.929 3.286c0.168 0.131 0.321 0.284 0.459 0.462 0.746 0.953 0.838 2.378 0.927 3.757 0.104 1.606 0.211 3.267 1.324 4.283 0.149 0.136 0.298 0.242 0.448 0.318-0.102 0.118-0.203 0.22-0.303 0.304-0.237-0.035-0.47-0.17-0.705-0.409-0.994-1.008-1.032-2.673-1.070-4.284-0.033-1.422-0.067-2.892-0.748-3.94-0.113-0.173-0.24-0.33-0.381-0.471 0.016-0.007 0.033-0.014 0.049-0.021zM31.69 11.731c-1.090-0.995-1.197-2.64-1.299-4.231-0.090-1.39-0.183-2.828-0.943-3.799-0.133-0.17-0.278-0.318-0.436-0.447 0.012-0.004 0.024-0.009 0.035-0.013 0.193 0.115 0.369 0.26 0.532 0.435 0.819 0.877 0.962 2.208 1.114 3.617 0.171 1.587 0.348 3.227 1.56 4.227 0.058 0.048 0.116 0.092 0.173 0.132-0.097 0.144-0.194 0.275-0.29 0.392-0.149-0.073-0.298-0.177-0.447-0.314zM32.531 11.631c0.089-0.135 0.178-0.279 0.268-0.432 0.023 0.018 0.046 0.037 0.069 0.054 0.126 0.094 0.252 0.176 0.379 0.246-0.1 0.127-0.2 0.243-0.299 0.347-0.139-0.051-0.278-0.122-0.417-0.215zM33.361 11.475c0.092-0.121 0.185-0.25 0.278-0.387 0.157 0.098 0.312 0.181 0.465 0.25-0.104 0.112-0.208 0.216-0.312 0.308-0.142-0.040-0.285-0.097-0.431-0.171zM34.232 11.309c0.097-0.109 0.194-0.225 0.291-0.348 0.166 0.085 0.331 0.16 0.496 0.223-0.109 0.099-0.217 0.191-0.327 0.273-0.154-0.036-0.307-0.085-0.46-0.148zM35.081 11.126c-0.17-0.064-0.34-0.139-0.51-0.226 0.092-0.119 0.185-0.244 0.277-0.373 0.184 0.102 0.367 0.195 0.549 0.279-0.105 0.113-0.211 0.22-0.317 0.32zM34.502 10.864c-0.121-0.064-0.243-0.134-0.365-0.21-0.053-0.033-0.105-0.068-0.156-0.103 0.082-0.135 0.165-0.275 0.249-0.42 0.148 0.113 0.308 0.22 0.482 0.319 0.023 0.013 0.046 0.025 0.069 0.038-0.093 0.13-0.186 0.255-0.279 0.375zM34.452 9.586c-0.082 0.148-0.163 0.292-0.244 0.433-0.197-0.157-0.372-0.327-0.529-0.507 0.077-0.159 0.155-0.321 0.233-0.486 0.16 0.197 0.338 0.385 0.539 0.56zM30.54 3.317c1.174 0.541 1.594 1.734 2.039 2.997 0.31 0.881 0.647 1.837 1.281 2.646-0.079 0.166-0.157 0.329-0.235 0.489-0.719-0.856-1.040-1.927-1.353-2.972-0.391-1.304-0.76-2.537-1.888-3.155-0.141-0.077-0.28-0.136-0.419-0.179 0.188 0.027 0.379 0.083 0.575 0.173zM25.683 2.096c0.738 0.062 1.363 0.213 1.881 0.455-0.478-0.142-1.037-0.211-1.686-0.211-0.004 0-0.007 0-0.011 0-1.502 0.001-2.625 0.815-3.535 2.562-0.412 0.787-0.723 1.653-0.998 2.418-0.029 0.080-0.058 0.16-0.086 0.239 0.006-0.022 0.011-0.044 0.017-0.066 0.631-2.518 1.416-5.651 4.419-5.397zM16.567 7.945c1.397-0.415 2.57-0.155 3.704 0.096 0.131 0.029 0.261 0.058 0.391 0.085-0.242-0.013-0.488-0.033-0.741-0.054-0.892-0.073-1.904-0.157-3.080 0.093-0.064 0.014-0.128 0.030-0.193 0.048-0.093-0.067-0.187-0.134-0.285-0.199 0.067-0.026 0.134-0.050 0.202-0.070zM16.28 8.050c0.094 0.063 0.186 0.127 0.276 0.191-0.103 0.032-0.207 0.069-0.311 0.112-0.093-0.048-0.188-0.094-0.285-0.14 0.105-0.061 0.211-0.116 0.319-0.163zM15.882 8.261c0.092 0.043 0.183 0.087 0.273 0.132-0.1 0.044-0.2 0.093-0.3 0.148-0.089-0.026-0.179-0.051-0.27-0.075 0.098-0.073 0.197-0.142 0.297-0.204zM15.509 8.523c0.085 0.022 0.169 0.045 0.252 0.069-0.034 0.019-0.067 0.038-0.101 0.058-0.060 0.036-0.119 0.074-0.178 0.113-0.080-0.006-0.16-0.011-0.242-0.015 0.088-0.079 0.178-0.154 0.269-0.225zM15.161 8.821c0.074 0.004 0.147 0.008 0.219 0.013-0.083 0.058-0.166 0.119-0.249 0.182-0.069 0.011-0.138 0.022-0.208 0.033 0.078-0.078 0.157-0.155 0.237-0.228zM15.008 9.112c-0.070 0.056-0.139 0.112-0.208 0.17-0.053 0.021-0.107 0.042-0.161 0.063 0.064-0.070 0.129-0.138 0.194-0.205 0.059-0.010 0.117-0.019 0.175-0.029zM14.601 9.443c0.007-0.003 0.014-0.006 0.021-0.008-0.047 0.041-0.093 0.081-0.14 0.123-0.027 0.017-0.054 0.034-0.081 0.052 0.040-0.045 0.080-0.090 0.12-0.135 0.026-0.010 0.053-0.021 0.079-0.031zM19.782 10.455c-0.31 0.078-0.688-0.064-1.147-0.431 0.435 0.199 0.806 0.23 1.135 0.094 0.444-0.183 0.769-0.66 1.059-1.293-0.264 0.869-0.568 1.508-1.047 1.629zM28.286 3.555c-0.712 0.482-1.405 1.264-2.076 2.020-0.76 0.856-1.546 1.742-2.375 2.221-0.78 0.45-1.536 0.5-2.302 0.406 0.7-0.049 1.389-0.239 2.13-0.758 0.597-0.42 1.168-1.011 1.772-1.637 0.495-0.513 1.006-1.043 1.54-1.478 0.571-0.466 1.101-0.832 1.617-1.030 0.014 0.015 0.027 0.031 0.041 0.047-0.114 0.060-0.23 0.13-0.347 0.209zM31.271 12.663c-0.274 0.039-0.537-0.090-0.804-0.393-0.9-1.021-0.873-2.631-0.844-4.335 0.028-1.69 0.057-3.416-0.87-4.571 0.018-0.009 0.035-0.017 0.053-0.025 0.146 0.142 0.276 0.302 0.391 0.479 0.67 1.029 0.704 2.489 0.736 3.9 0.037 1.625 0.076 3.306 1.091 4.335 0.225 0.228 0.449 0.366 0.679 0.418-0.144 0.105-0.288 0.171-0.432 0.192zM32.033 12.41c-0.049 0.007-0.098 0.009-0.146 0.008 0.090-0.080 0.179-0.174 0.269-0.28 0.108 0.048 0.217 0.081 0.327 0.098-0.149 0.092-0.299 0.152-0.449 0.174zM32.825 12.163c-0.041 0.006-0.083 0.009-0.124 0.010 0.089-0.070 0.177-0.15 0.265-0.24 0.107 0.036 0.214 0.060 0.322 0.072-0.154 0.082-0.309 0.136-0.464 0.157zM33.657 11.928c-0.037 0.005-0.075 0.008-0.112 0.010 0.089-0.062 0.178-0.132 0.267-0.21 0.11 0.029 0.221 0.049 0.331 0.059-0.161 0.071-0.323 0.12-0.487 0.141zM34.44 11.719c0.089-0.053 0.178-0.113 0.267-0.179 0.114 0.025 0.227 0.043 0.339 0.054-0.199 0.070-0.401 0.114-0.605 0.125zM35.393 11.527c0.088-0.043 0.176-0.092 0.264-0.146 0.002-0.001 0.003-0.002 0.005-0.003 0.116 0.025 0.231 0.045 0.347 0.059-0.207 0.053-0.412 0.083-0.616 0.090zM36.402 11.388c0.095-0.037 0.189-0.078 0.282-0.123 0.123 0.030 0.246 0.057 0.369 0.079-0.218 0.033-0.434 0.048-0.651 0.044zM38.198 11.356c-0.235 0.007-0.47-0.001-0.708-0.025 0.085-0.022 0.169-0.047 0.254-0.074 0.018-0.006 0.035-0.012 0.053-0.018 0.135 0.043 0.269 0.082 0.401 0.118zM37.675 11.198c-0.133 0.042-0.266 0.078-0.399 0.106-0.162-0.023-0.324-0.053-0.487-0.091 0.12-0.062 0.239-0.129 0.357-0.202 0.179 0.068 0.355 0.13 0.528 0.187zM37.058 10.977c-0.126 0.076-0.253 0.146-0.38 0.209-0.174-0.044-0.348-0.096-0.523-0.156 0.113-0.090 0.225-0.186 0.336-0.287 0.192 0.084 0.381 0.162 0.567 0.234zM36.415 10.71c-0.115 0.103-0.23 0.2-0.345 0.291-0.181-0.065-0.363-0.138-0.546-0.22 0.1-0.11 0.2-0.225 0.3-0.345 0.2 0.098 0.397 0.189 0.591 0.275zM35.327 10.184c0.144 0.075 0.286 0.147 0.427 0.217-0.101 0.12-0.201 0.236-0.302 0.347-0.185-0.085-0.372-0.179-0.559-0.283 0.086-0.122 0.173-0.249 0.26-0.378 0.057 0.033 0.115 0.066 0.175 0.097z"></path>
</symbol>
</defs>
</svg>
